<?xml version="1.0" encoding="utf-8"?>
<!-- Generator: Adobe Illustrator 15.0.0, SVG Export Plug-In . SVG Version: 6.00 Build 0)  -->
<!DOCTYPE svg PUBLIC "-//W3C//DTD SVG 1.1//EN" "http://www.w3.org/Graphics/SVG/1.1/DTD/svg11.dtd">
<svg version="1.1" id="Layer_1" xmlns="http://www.w3.org/2000/svg" xmlns:xlink="http://www.w3.org/1999/xlink" x="0px" y="0px"
	 width="185.987px" height="242.5px" viewBox="0 0 185.987 242.5" enable-background="new 0 0 185.987 242.5" xml:space="preserve">
<rect fill-rule="evenodd" clip-rule="evenodd" fill="#F1F0F0" width="185.987" height="242.5"/>
<path fill-rule="evenodd" clip-rule="evenodd" fill="#E1E1E2" d="M0,242.5v-20.771c0,0,58.648-20.554,61.293-35.397
	s2.836-23.858,2.101-27.386c-0.735-3.527-8.728-13.396-9.463-13.983s-0.031-5.526-0.031-6.555c-0.754-1.532-2.742-1.16-2.742-1.16
	c-2.742-11.446-10.649-22.27-11.064-25.497c-1.323-10.288-2.516-27.686-0.458-40.031c2.058-12.346,31.697-34.206,40.222-35.088
	s35.188,0.481,39.009,1.804c2.629,0.25,5.84,7.386,17.811,11.506c0.882,1.617,0.773,2.044,1.34,3.576
	c1.321,1.783,2.903,1.91,3.197,3.232c7.937,8.818,5.55,55.669,5.55,55.669c-2.166,4.359-6.286,18.356-7.609,20.414
	s-4.799,3.847-5.553,5.355c-0.754,1.508-1.112,5.495-0.965,7.699c-9.7,18.518-9.63,17.301-10.512,30.676
	c-0.882,13.374,18.034,20.04,49.192,26.506c3.674,2.499,14.669,6.727,14.669,6.727V242.5H0z"/>
</svg>
