<?xml version="1.0" encoding="UTF-8"?>
<svg width="845px" height="481px" viewBox="0 0 845 481" version="1.1" xmlns="http://www.w3.org/2000/svg" xmlns:xlink="http://www.w3.org/1999/xlink">
    <title>Group</title>
    <defs>
        <filter x="-17.8%" y="-18.8%" width="135.5%" height="137.5%" filterUnits="objectBoundingBox" id="filter-1">
            <feGaussianBlur stdDeviation="10" in="SourceGraphic"></feGaussianBlur>
        </filter>
        <filter x="-13.2%" y="-24.3%" width="126.5%" height="148.6%" filterUnits="objectBoundingBox" id="filter-2">
            <feGaussianBlur stdDeviation="3" in="SourceGraphic"></feGaussianBlur>
        </filter>
        <filter x="-17.5%" y="-10.1%" width="134.9%" height="120.3%" filterUnits="objectBoundingBox" id="filter-3">
            <feGaussianBlur stdDeviation="2" in="SourceGraphic"></feGaussianBlur>
        </filter>
        <filter x="-21.7%" y="-9.9%" width="143.4%" height="119.9%" filterUnits="objectBoundingBox" id="filter-4">
            <feGaussianBlur stdDeviation="6" in="SourceGraphic"></feGaussianBlur>
        </filter>
        <filter x="-11.5%" y="-10.0%" width="123.1%" height="120.0%" filterUnits="objectBoundingBox" id="filter-5">
            <feGaussianBlur stdDeviation="1" in="SourceGraphic"></feGaussianBlur>
        </filter>
        <filter x="-9.9%" y="-13.3%" width="119.8%" height="126.6%" filterUnits="objectBoundingBox" id="filter-6">
            <feGaussianBlur stdDeviation="3" in="SourceGraphic"></feGaussianBlur>
        </filter>
        <filter x="-24.2%" y="-25.5%" width="148.4%" height="151.1%" filterUnits="objectBoundingBox" id="filter-7">
            <feGaussianBlur stdDeviation="3" in="SourceGraphic"></feGaussianBlur>
        </filter>
    </defs>
    <g id="Page-1" stroke="none" stroke-width="1" fill="none" fill-rule="evenodd">
        <g id="Group" transform="translate(0.000000, -57.180679)">
            <rect id="Rectangle" x="0" y="57.1806794" width="840" height="480"></rect>
            <polygon id="baliseLeft-Copy-2" fill="#2E2E2E" filter="url(#filter-1)" points="218.252613 0 218.252613 29.0285221 82.3939259 80.1298789 218.252613 130.759213 218.252613 160 49.2526128 93.2191263 49.2526128 66.7450213"></polygon>
            <path d="M433,435.180679 L416.104171,472.180679 L412,472.180679 L428.917184,435.180679 L433,435.180679 Z M411,442.180679 L411,446.172101 L392.510356,453.198538 L411,460.160071 L411,464.180679 L388,454.998309 L388,451.35812 L411,442.180679 Z M433,442.180679 L456,451.35812 L456,454.998309 L433,464.180679 L433,460.160071 L451.489644,453.198538 L433,446.172101 L433,442.180679 Z" id="Combined-Shape" fill="#000000" filter="url(#filter-2)" transform="translate(422.000000, 453.680679) rotate(-16.000000) translate(-422.000000, -453.680679) "></path>
            <polygon id="slash-copy-2" fill="#131313" filter="url(#filter-3)" transform="translate(604.759117, 293.274562) scale(-1, 1) translate(-604.759117, -293.274562) " points="615.253828 263.69201 621.930896 263.69201 594.29933 322.857114 587.587338 322.857114"></polygon>
            <path d="M866.277598,277.32388 L866.277598,291.139747 C851.887913,290.54497 843.451919,292.287591 840.969617,296.367611 C838.833721,299.237266 837.7378,304.738064 837.681853,312.870002 L837.681853,340.343272 C837.569562,350.695402 835.40205,357.865892 831.179316,361.85474 C826.645945,365.892484 817.906319,368.772256 804.960439,370.494056 C818.097181,372.126693 826.836807,375.134304 831.179316,379.516891 C835.355967,383.71389 837.523479,390.823809 837.681853,400.846647 L837.681853,422.831185 C837.745446,432.500243 839.402119,438.498169 842.651874,440.824965 C845.755172,443.508997 853.630413,444.655759 866.277598,444.265251 L866.277598,458.161736 C846.125524,458.651247 833.167248,456.155214 827.402769,450.673635 C821.920315,445.657528 819.302156,435.472254 819.548295,420.117811 L819.548295,402.211446 C819.091125,392.997841 815.847072,386.049247 809.816138,381.365665 C805.181052,377.776337 796.334872,376.439439 783.277598,377.354971 L783.277598,363.540539 C802.350223,363.682549 821.35603,366.665471 819.548295,332.121775 L819.548295,310.178311 C819.934953,296.532013 823.075092,287.62643 828.96871,283.461564 C835.857995,278.770096 848.294291,276.724201 866.277598,277.32388 Z" id="AccoladeRight-Copy" fill="#2C2C2C" filter="url(#filter-4)" transform="translate(824.777598, 367.721932) scale(-1, -1) rotate(20.000000) translate(-824.777598, -367.721932) "></path>
            <path d="M422,195.180679 L408.322424,225.180679 L405,225.180679 L418.694863,195.180679 L422,195.180679 Z M402,212.180679 L402,219.180679 L396,219.180679 L396,212.180679 L402,212.180679 Z" id="Combined-Shape" fill="#000000" filter="url(#filter-5)"></path>
            <path d="M669.600797,170.977556 L669.600797,185.977556 L657.600797,185.977556 L657.600797,170.977556 L669.600797,170.977556 Z M718.696691,118.870205 C725.196682,118.648225 729.691728,119.405545 732.181831,121.142165 C734.312055,122.683856 735.447045,125.980398 735.586801,131.03179 L735.586801,131.03179 L735.586801,139.154509 C735.024878,150.151237 740.026942,150.87413 745.823326,150.827569 L746.228953,150.823192 C747.042546,150.812418 747.869445,150.790967 748.696691,150.784659 L748.696691,150.784659 L748.696691,155.898289 C743.977194,155.55939 740.77978,156.054264 739.104448,157.38291 C736.924592,159.116612 735.752043,161.688743 735.586801,165.099304 L735.586801,165.099304 L735.586801,171.727627 C735.675766,177.411316 734.729444,181.181556 732.747834,183.038347 C730.664288,185.067439 725.980573,185.991385 718.696691,185.810185 L718.696691,185.810185 L718.696691,180.666182 C723.267963,180.810735 726.114435,180.386243 727.23611,179.392706 C728.41072,178.531406 729.009517,176.311179 729.032503,172.732025 L729.032503,172.732025 L729.032503,164.594103 C729.089746,160.883991 729.873184,158.252142 731.382817,156.698557 C732.952399,155.076274 736.111299,153.962959 740.859519,153.358613 C736.180286,152.721261 733.021385,151.655269 731.382817,150.160634 C729.856528,148.684099 729.07309,146.02983 729.032503,142.197825 L729.032503,142.197825 L729.032503,132.028162 C729.012281,129.017997 728.616165,126.98179 727.844154,125.919542 C726.946936,124.409258 723.897782,123.7642 718.696691,123.984366 L718.696691,123.984366 Z M702.600932,118.444755 L702.600932,123.558916 C697.399841,123.33875 694.350687,123.983809 693.453469,125.494092 C692.681459,126.55634 692.285343,128.592547 692.265121,131.602712 L692.265121,141.772375 C692.224534,145.60438 691.441096,148.258649 689.914806,149.735184 C688.276238,151.229819 685.117337,152.295812 680.438104,152.933163 C685.186324,153.537509 688.345225,154.650824 689.914806,156.273107 C691.424439,157.826693 692.207877,160.458541 692.265121,164.168653 L692.265121,172.306575 C692.288106,175.885729 692.886904,178.105956 694.061514,178.967256 C695.183188,179.960793 698.029661,180.385285 702.600932,180.240733 L702.600932,185.384735 C695.31705,185.565935 690.633336,184.641989 688.549789,182.612897 C686.568179,180.756106 685.621857,176.985866 685.710823,171.302177 L685.710823,164.673854 C685.54558,161.263293 684.373031,158.691162 682.193175,156.95746 C680.517843,155.628814 677.320429,155.13394 672.600932,155.472839 L672.600932,150.359209 C673.359241,150.364992 674.117258,150.383498 674.865002,150.394841 L675.271784,150.400198 C675.406998,150.401667 675.541812,150.40278 675.676167,150.403416 L676.077794,150.40378 C681.612892,150.385744 686.253143,149.34218 685.710823,138.729059 L685.710823,130.60634 C685.850579,125.554948 686.985568,122.258407 689.115792,120.716715 C691.605895,118.980095 696.100942,118.222775 702.600932,118.444755 Z" id="Combined-Shape" fill="#424141" filter="url(#filter-6)" transform="translate(703.148744, 152.192287) rotate(12.000000) translate(-703.148744, -152.192287) "></path>
            <polygon id="baliseRight" fill="#000000" filter="url(#filter-7)" transform="translate(300.580577, 335.794916) scale(-1, 1) rotate(-13.000000) translate(-300.580577, -335.794916) " points="319.161155 318.180679 319.161155 324.57212 289.287393 335.823512 319.161155 346.970976 319.161155 353.409152 282 338.705476 282 332.876462"></polygon>
        </g>
    </g>
</svg>